<svg xmlns="http://www.w3.org/2000/svg" style="display:none">
    <symbol id="ic-clock" xmlns="http://www.w3.org/2000/svg" viewBox="0 0 512 512"><g fill="currentColor"><path d="M232 120C232 106.7 242.7 96 256 96C269.3 96 280 106.7 280 120V243.2L365.3 300C376.3 307.4 379.3 322.3 371.1 333.3C364.6 344.3 349.7 347.3 338.7 339.1L242.7 275.1C236 271.5 232 264 232 255.1L232 120zM256 0C397.4 0 512 114.6 512 256C512 397.4 397.4 512 256 512C114.6 512 0 397.4 0 256C0 114.6 114.6 0 256 0zM48 256C48 370.9 141.1 464 256 464C370.9 464 464 370.9 464 256C464 141.1 370.9 48 256 48C141.1 48 48 141.1 48 256z"/></g></symbol>
    <symbol id="ic-tag" xmlns="http://www.w3.org/2000/svg" viewBox="0 0 448 512"><g fill="currentColor"><path d="M48 32H197.5C214.5 32 230.7 38.74 242.7 50.75L418.7 226.7C443.7 251.7 443.7 292.3 418.7 317.3L285.3 450.7C260.3 475.7 219.7 475.7 194.7 450.7L18.75 274.7C6.743 262.7 0 246.5 0 229.5V80C0 53.49 21.49 32 48 32L48 32zM112 176C129.7 176 144 161.7 144 144C144 126.3 129.7 112 112 112C94.33 112 80 126.3 80 144C80 161.7 94.33 176 112 176z"/></g></symbol>
    <symbol id="ic-calendar" xmlns="http://www.w3.org/2000/svg" viewBox="0 0 448 512"><g fill="currentColor"><path d="M160 32V64H288V32C288 14.33 302.3 0 320 0C337.7 0 352 14.33 352 32V64H400C426.5 64 448 85.49 448 112V160H0V112C0 85.49 21.49 64 48 64H96V32C96 14.33 110.3 0 128 0C145.7 0 160 14.33 160 32zM0 192H448V464C448 490.5 426.5 512 400 512H48C21.49 512 0 490.5 0 464V192zM64 304C64 312.8 71.16 320 80 320H112C120.8 320 128 312.8 128 304V272C128 263.2 120.8 256 112 256H80C71.16 256 64 263.2 64 272V304zM192 304C192 312.8 199.2 320 208 320H240C248.8 320 256 312.8 256 304V272C256 263.2 248.8 256 240 256H208C199.2 256 192 263.2 192 272V304zM336 256C327.2 256 320 263.2 320 272V304C320 312.8 327.2 320 336 320H368C376.8 320 384 312.8 384 304V272C384 263.2 376.8 256 368 256H336zM64 432C64 440.8 71.16 448 80 448H112C120.8 448 128 440.8 128 432V400C128 391.2 120.8 384 112 384H80C71.16 384 64 391.2 64 400V432zM208 384C199.2 384 192 391.2 192 400V432C192 440.8 199.2 448 208 448H240C248.8 448 256 440.8 256 432V400C256 391.2 248.8 384 240 384H208zM320 432C320 440.8 327.2 448 336 448H368C376.8 448 384 440.8 384 432V400C384 391.2 376.8 384 368 384H336C327.2 384 320 391.2 320 400V432z"></path></g></symbol>
    <symbol id="ic-user" xmlns="http://www.w3.org/2000/svg" viewBox="0 0 448 512"><g fill="currentColor"><path d="M224 256c70.7 0 128-57.31 128-128s-57.3-128-128-128C153.3 0 96 57.31 96 128S153.3 256 224 256zM274.7 304H173.3C77.61 304 0 381.6 0 477.3c0 19.14 15.52 34.67 34.66 34.67h378.7C432.5 512 448 496.5 448 477.3C448 381.6 370.4 304 274.7 304z"/></g></symbol>
    <symbol id="ic-heart" xmlns="http://www.w3.org/2000/svg" viewBox="0 0 512 512"><g fill="currentColor"><path d="M0 190.9V185.1C0 115.2 50.52 55.58 119.4 44.1C164.1 36.51 211.4 51.37 244 84.02L256 96L267.1 84.02C300.6 51.37 347 36.51 392.6 44.1C461.5 55.58 512 115.2 512 185.1V190.9C512 232.4 494.8 272.1 464.4 300.4L283.7 469.1C276.2 476.1 266.3 480 256 480C245.7 480 235.8 476.1 228.3 469.1L47.59 300.4C17.23 272.1 .0003 232.4 .0003 190.9L0 190.9z"/></g></symbol>
    <symbol id="ic-heartx" xmlns="http://www.w3.org/2000/svg" viewBox="0 0 512 512"><g fill="currentColor"><path d="M119.4 44.1C142.7 40.22 166.2 42.2 187.1 49.43L237.8 126.9L162.3 202.3C160.8 203.9 159.1 205.1 160 208.2C160 210.3 160.1 212.4 162.6 213.9L274.6 317.9C277.5 320.6 281.1 320.7 285.1 318.2C288.2 315.6 288.9 311.2 286.8 307.8L226.4 209.7L317.1 134.1C319.7 131.1 320.7 128.5 319.5 125.3L296.8 61.74C325.4 45.03 359.2 38.53 392.6 44.1C461.5 55.58 512 115.2 512 185.1V190.9C512 232.4 494.8 272.1 464.4 300.4L283.7 469.1C276.2 476.1 266.3 480 256 480C245.7 480 235.8 476.1 228.3 469.1L47.59 300.4C17.23 272.1 0 232.4 0 190.9V185.1C0 115.2 50.52 55.58 119.4 44.09V44.1z"/></g></symbol>
    <symbol id="ic-fork" xmlns="http://www.w3.org/2000/svg" width="1em" height="1em" preserveAspectRatio="xMidYMid meet" viewBox="0 0 64 64"><g fill="currentColor" fill-rule="evenodd"><path d="M61.821 11.045c.703-1.309-.891-.912-.891-.912s-10.627 10.201-12.104 8.951S59.231 8.057 57.825 6.23c-1.301-1.703-11.74 10.455-12.994 8.97c-1.242-1.482 8.939-12.123 8.939-12.123s.387-1.602-.912-.9C36.851 10.785 34.812 18.81 34.812 18.81s-.551 1.563.645 2.771c.117.105-29.204 29.26-33.129 33.196c-1.91 1.908 5.098 8.801 6.996 6.893c3.926-3.936 33.024-33.303 33.129-33.194c1.207 1.205 2.766.652 2.766.652s8.012-2.045 16.602-18.083"/><path d="M32.028 40.507c7.803 7.82 20.958 20.999 20.958 20.999s5.742-1.879 6.551-6.729L38.662 33.861a5104.35 5104.35 0 0 0-6.634 6.646M21.76 33.729a5059.26 5059.26 0 0 0 8.387-8.4L7.459 2.598s-.41-.43-1.313.477C4.353 4.862.884 16.248 15.591 30.977c2.331 2.336 4.359 2.66 6.169 2.752"/></g></symbol>
    <symbol id="ic-eye" xmlns="http://www.w3.org/2000/svg" viewBox="0 0 576 512"><g fill="currentColor"><path d="M279.6 160.4C282.4 160.1 285.2 160 288 160C341 160 384 202.1 384 256C384 309 341 352 288 352C234.1 352 192 309 192 256C192 253.2 192.1 250.4 192.4 247.6C201.7 252.1 212.5 256 224 256C259.3 256 288 227.3 288 192C288 180.5 284.1 169.7 279.6 160.4zM480.6 112.6C527.4 156 558.7 207.1 573.5 243.7C576.8 251.6 576.8 260.4 573.5 268.3C558.7 304 527.4 355.1 480.6 399.4C433.5 443.2 368.8 480 288 480C207.2 480 142.5 443.2 95.42 399.4C48.62 355.1 17.34 304 2.461 268.3C-.8205 260.4-.8205 251.6 2.461 243.7C17.34 207.1 48.62 156 95.42 112.6C142.5 68.84 207.2 32 288 32C368.8 32 433.5 68.84 480.6 112.6V112.6zM288 112C208.5 112 144 176.5 144 256C144 335.5 208.5 400 288 400C367.5 400 432 335.5 432 256C432 176.5 367.5 112 288 112z"/></g></symbol>
    <symbol id="ic-angle-left" xmlns="http://www.w3.org/2000/svg" viewBox="0 0 320 512"><g fill="currentColor"><path d="M278.6 233.4c12.5 12.5 12.5 32.8 0 45.3l-160 160c-12.5 12.5-32.8 12.5-45.3 0s-12.5-32.8 0-45.3L210.7 256 73.4 118.6c-12.5-12.5-12.5-32.8 0-45.3s32.8-12.5 45.3 0l160 160z"/></g></symbol>
    <symbol id="ic-list" xmlns="http://www.w3.org/2000/svg" viewBox="0 0 512 512"><g fill="currentColor"><path d="M40 48C26.7 48 16 58.7 16 72v48c0 13.3 10.7 24 24 24H88c13.3 0 24-10.7 24-24V72c0-13.3-10.7-24-24-24H40zM192 64c-17.7 0-32 14.3-32 32s14.3 32 32 32H480c17.7 0 32-14.3 32-32s-14.3-32-32-32H192zm0 160c-17.7 0-32 14.3-32 32s14.3 32 32 32H480c17.7 0 32-14.3 32-32s-14.3-32-32-32H192zm0 160c-17.7 0-32 14.3-32 32s14.3 32 32 32H480c17.7 0 32-14.3 32-32s-14.3-32-32-32H192zM16 232v48c0 13.3 10.7 24 24 24H88c13.3 0 24-10.7 24-24V232c0-13.3-10.7-24-24-24H40c-13.3 0-24 10.7-24 24zM40 368c-13.3 0-24 10.7-24 24v48c0 13.3 10.7 24 24 24H88c13.3 0 24-10.7 24-24V392c0-13.3-10.7-24-24-24H40z"/></g></symbol>
    <symbol id="ic-info" xmlns="http://www.w3.org/2000/svg" width="1em" height="1em" preserveAspectRatio="xMidYMid meet" viewBox="0 0 15 15"><path fill="currentColor" d="M7.5 1C6.7 1 6 1.7 6 2.5S6.7 4 7.5 4S9 3.3 9 2.5S8.3 1 7.5 1zM4 5v1s2 0 2 2v2c0 2-2 2-2 2v1h7v-1s-2 0-2-2V6c0-.5-.5-1-1-1H4z"/></symbol>
    <symbol id="ic-check" xmlns="http://www.w3.org/2000/svg" viewBox="0 0 448 512"><g fill="currentColor"><path d="M211.8 339.8C200.9 350.7 183.1 350.7 172.2 339.8L108.2 275.8C97.27 264.9 97.27 247.1 108.2 236.2C119.1 225.3 136.9 225.3 147.8 236.2L192 280.4L300.2 172.2C311.1 161.3 328.9 161.3 339.8 172.2C350.7 183.1 350.7 200.9 339.8 211.8L211.8 339.8zM0 96C0 60.65 28.65 32 64 32H384C419.3 32 448 60.65 448 96V416C448 451.3 419.3 480 384 480H64C28.65 480 0 451.3 0 416V96zM48 96V416C48 424.8 55.16 432 64 432H384C392.8 432 400 424.8 400 416V96C400 87.16 392.8 80 384 80H64C55.16 80 48 87.16 48 96z"/></g></symbol>
    <symbol id="ic-facebook" viewBox="0 0 24 24"><g fill="currentColor"><path d="M9.03153,23L9,13H5V9h4V6.5C9,2.7886,11.29832,1,14.60914,1c1.58592,0,2.94893,0.11807,3.34615,0.17085 v3.87863l-2.29623,0.00104c-1.80061,0-2.14925,0.85562-2.14925,2.11119V9H18.75l-2,4h-3.24019v10H9.03153z"></path></g></symbol>
    <symbol id="ic-twitter" xmlns="http://www.w3.org/2000/svg" viewBox="0 0 512 512"><g fill="currentColor"><path d="M459.37 151.716c.325 4.548.325 9.097.325 13.645 0 138.72-105.583 298.558-298.558 298.558-59.452 0-114.68-17.219-161.137-47.106 8.447.974 16.568 1.299 25.34 1.299 49.055 0 94.213-16.568 130.274-44.832-46.132-.975-84.792-31.188-98.112-72.772 6.498.974 12.995 1.624 19.818 1.624 9.421 0 18.843-1.3 27.614-3.573-48.081-9.747-84.143-51.98-84.143-102.985v-1.299c13.969 7.797 30.214 12.67 47.431 13.319-28.264-18.843-46.781-51.005-46.781-87.391 0-19.492 5.197-37.36 14.294-52.954 51.655 63.675 129.3 105.258 216.365 109.807-1.624-7.797-2.599-15.918-2.599-24.04 0-57.828 46.782-104.934 104.934-104.934 30.213 0 57.502 12.67 76.67 33.137 23.715-4.548 46.456-13.32 66.599-25.34-7.798 24.366-24.366 44.833-46.132 57.827 21.117-2.273 41.584-8.122 60.426-16.243-14.292 20.791-32.161 39.308-52.628 54.253z"/></g></symbol>
    <symbol id="ic-menu" viewBox="0 0 16 16"><g fill="currentColor"><rect width="16" height="3"></rect> <rect y="6" width="16" height="3"></rect> <rect y="12" width="16" height="3"></rect></g></symbol>
</svg>